<?xml version="1.0" encoding="utf-8"?>
<!-- Generator: Adobe Illustrator 15.0.0, SVG Export Plug-In . SVG Version: 6.00 Build 0)  -->
<!DOCTYPE svg PUBLIC "-//W3C//DTD SVG 1.1//EN" "http://www.w3.org/Graphics/SVG/1.1/DTD/svg11.dtd">
<svg version="1.1" id="Layer_1" xmlns="http://www.w3.org/2000/svg" xmlns:xlink="http://www.w3.org/1999/xlink" x="0px" y="0px"
	 width="304.871px" height="118px" viewBox="297.129 0 304.871 118" enable-background="new 297.129 0 304.871 118"
	 xml:space="preserve">
<g>
	<g>
		<g>
			<path fill="#003B79" d="M297.129,28.849h13.369v64.942h-13.369V28.849z"/>
			<path fill="#003B79" d="M320.223,28.849h14.135l9.455,26.072c0.382,1.146,0.777,2.388,1.193,3.725
				c0.413,1.336,0.779,2.611,1.1,3.82c0.381,1.401,0.764,2.802,1.145,4.202c0.384-1.398,0.797-2.801,1.242-4.202
				c0.382-1.209,0.813-2.497,1.29-3.868c0.479-1.369,0.971-2.594,1.48-3.677l12.51-26.646h1.338l12.701,26.646
				c0.509,1.083,1.004,2.309,1.479,3.677c0.479,1.371,0.907,2.659,1.289,3.868c0.446,1.401,0.859,2.802,1.242,4.202
				c0.381-1.398,0.765-2.801,1.146-4.202c0.315-1.209,0.669-2.483,1.05-3.82c0.383-1.337,0.796-2.579,1.242-3.725l9.357-26.072
				h12.988L384.02,94.365h-1.337L368.07,63.039c-0.446-0.893-0.892-1.895-1.336-3.01c-0.446-1.112-0.828-2.179-1.146-3.198
				c-0.383-1.146-0.765-2.292-1.146-3.439c-0.446,1.146-0.859,2.292-1.242,3.439c-0.382,1.02-0.78,2.086-1.193,3.198
				c-0.415,1.115-0.845,2.117-1.29,3.01l-15.186,31.324h-1.337L320.223,28.849z"/>
			<path fill="#003B79" d="M428.363,62.18c0.766-1.719,1.624-3.5,2.579-5.348c0.954-1.847,1.941-3.439,2.96-4.775l17.19-23.208
				h15.186l-21.772,29.415l24.447,35.526h-16.141l-17.286-25.499l-6.303,7.545V93.79h-13.371V28.849h13.371v22.444
				c0,1.592-0.096,3.39-0.287,5.396C428.743,58.694,428.554,60.525,428.363,62.18z"/>
		</g>
	</g>
	<g>
		<g>
			<path fill="#003B79" d="M542.824,105.288c22.861,0,41.833-16.638,45.479-38.464h-7.29v-15.3h7.29
				c-3.646-21.827-22.618-38.464-45.479-38.464c-22.86,0-41.834,16.637-45.479,38.464h7.29v15.3h-7.29
				C500.99,88.652,519.965,105.288,542.824,105.288z M566.646,41.262h9.836v35.825h-9.836V41.262z M552.276,30.999h9.836V87.35
				h-9.836V30.999z M537.906,41.262h9.835v35.825h-9.835V41.262z M523.538,51.524h9.837v15.301h-9.837V51.524z M509.17,41.262h9.835
				v35.825h-9.835V41.262L509.17,41.262z"/>
		</g>
		<g>
			
				<linearGradient id="SVGID_1_" gradientUnits="userSpaceOnUse" x1="-845.0007" y1="444.3057" x2="-717.9598" y2="286.5198" gradientTransform="matrix(0.9 0 0 -0.9 1252.89 396.4096)">
				<stop  offset="0" style="stop-color:#D4145A"/>
				<stop  offset="1" style="stop-color:#29ABE2"/>
			</linearGradient>
			<path fill="url(#SVGID_1_)" d="M542.824,117.348c-32.077,0-58.174-26.097-58.174-58.173C484.651,27.097,510.747,1,542.824,1
				C574.903,1,601,27.097,601,59.175C601,91.251,574.903,117.348,542.824,117.348z M542.824,5.177
				c-29.772,0-53.997,24.223-53.997,53.998c0,29.774,24.225,53.997,53.997,53.997c29.774,0,53.997-24.223,53.997-53.997
				C596.823,29.4,572.6,5.177,542.824,5.177z"/>
		</g>
	</g>
</g>
</svg>
