<svg xmlns="http://www.w3.org/2000/svg" xmlns:xlink="http://www.w3.org/1999/xlink" id="Layer_1" data-name="Layer 1" viewBox="0 0 290.61 93.93"><defs><style>.cls-1{fill:none;}.cls-2{clip-path:url(#clip-path);}.cls-3{fill:#0093a0;}.cls-4{fill:#ffcf00;}.cls-5{clip-path:url(#clip-path-2);}.cls-6{fill:url(#linear-gradient);}.cls-7{fill:#be2c88;}.cls-8{clip-path:url(#clip-path-4);}.cls-9{fill:url(#linear-gradient-2);}.cls-10{fill:#1c4897;}.cls-11{clip-path:url(#clip-path-6);}.cls-12{fill:url(#linear-gradient-3);}.cls-13{clip-path:url(#clip-path-7);}.cls-14{fill:url(#linear-gradient-4);}.cls-15{fill:#1c4896;}.cls-16{fill:#2db6b9;}.cls-17{fill:#1b4697;}</style><clipPath id="clip-path" transform="translate(-4.46 -1.26)"><rect class="cls-1" x="-14" y="3.38" width="330" height="90.1"></rect></clipPath><clipPath id="clip-path-2" transform="translate(-4.46 -1.26)"><path class="cls-1" d="M19.8,18.38a4.05,4.05,0,0,0-.89,4.6A4,4,0,0,0,21,25.26a24.75,24.75,0,0,1,12.17,12.5c.18.4.33.82.48,1.23l.1.29c1.66,4.57,1.77,11.7.52,16.8.29-.15.59-.29.9-.43a32.84,32.84,0,0,1,8.12-2.35,52.13,52.13,0,0,0,.26-9.45A33.33,33.33,0,0,0,41,34.35c-.32-.72-.68-1.41-1-2.12A33.52,33.52,0,0,0,24.6,17.55a4.2,4.2,0,0,0-1.72-.4H22.8a4.27,4.27,0,0,0-3,1.23"></path></clipPath><linearGradient id="linear-gradient" x1="-255.75" y1="356.83" x2="-254.09" y2="356.83" gradientTransform="matrix(15.07, 0, 0, -15.07, 3867.28, 5411.39)" gradientUnits="userSpaceOnUse"><stop offset="0" stop-color="#ffcf00"></stop><stop offset="1" stop-color="#be2c87"></stop></linearGradient><clipPath id="clip-path-4" transform="translate(-4.46 -1.26)"><path class="cls-1" d="M44.7,53.11a33.34,33.34,0,0,0-9.55,2.54c-.71.31-1.42.69-2,1A33.11,33.11,0,0,0,18.71,71.32l-.16.32a2.76,2.76,0,0,0-.2.36,4.16,4.16,0,0,0-.14,3.59,4.28,4.28,0,0,0,5.53,2.23l.22-.16a4.24,4.24,0,0,0,2.09-2A24.8,24.8,0,0,1,38.56,63.45c.48-.21,1-.38,1.44-.55l.22-.08c4.73-1.68,14.07-.39,18.42.41l-.28-.53c-.33-.62-.65-1.25-.93-1.89a33,33,0,0,1-2.23-7.14,29.92,29.92,0,0,0-5.41-.75l-1,0a35.21,35.21,0,0,0-4.06.21"></path></clipPath><linearGradient id="linear-gradient-2" x1="-261.28" y1="346.02" x2="-259.62" y2="346.02" gradientTransform="matrix(33.3, 0, 0, -33.3, 8713.6, 11588.48)" gradientUnits="userSpaceOnUse"><stop offset="0" stop-color="#be2c87"></stop><stop offset="0.35" stop-color="#81378d"></stop><stop offset="0.79" stop-color="#394394"></stop><stop offset="1" stop-color="#1c4897"></stop></linearGradient><clipPath id="clip-path-6" transform="translate(-4.46 -1.26)"><path class="cls-1" d="M62.83,39.7a31.92,31.92,0,0,1-8.19,2.41,44.25,44.25,0,0,0,.2,9.06,32,32,0,0,0,2.59,9.64c.28.64.6,1.27.93,1.89,3,5.82,11.41,14.87,17.16,15.21a3.67,3.67,0,0,0,3.56-1.76,4.25,4.25,0,0,0-1.69-6.25A24.77,24.77,0,0,1,65.23,57.4c-.25-.56-.45-1.12-.64-1.68a31.8,31.8,0,0,1-.85-16.44c-.3.15-.6.29-.91.42"></path></clipPath><linearGradient id="linear-gradient-3" x1="-254.93" y1="356.13" x2="-253.26" y2="356.13" gradientTransform="matrix(15.2, 0, 0, -15.2, 3925.97, 5472.06)" gradientUnits="userSpaceOnUse"><stop offset="0" stop-color="#30b7ba"></stop><stop offset="0.21" stop-color="#2da5b4"></stop><stop offset="0.61" stop-color="#2578a6"></stop><stop offset="1" stop-color="#1c4897"></stop></linearGradient><clipPath id="clip-path-7" transform="translate(-4.46 -1.26)"><path class="cls-1" d="M71.93,19.74A24.8,24.8,0,0,1,59.43,31.9c-.44.19-.88.35-1.32.51l-.24.08c-2.3.64-11.15,2.43-17.28,1.08,0,.09.13.26.16.35a35.35,35.35,0,0,1,2.64,8.85,64.62,64.62,0,0,0,9-.41l.9-.09a31.05,31.05,0,0,0,9.51-2.57c.7-.3,1.36-.65,2.1-1C72,35,80.48,25.75,80,20.62c-.13-1.52-1-2.5-2.88-3.08a4.22,4.22,0,0,0-1.31-.21,4.36,4.36,0,0,0-3.91,2.41"></path></clipPath><linearGradient id="linear-gradient-4" x1="-260.84" y1="346.35" x2="-259.18" y2="346.35" gradientTransform="matrix(33.33, 0, 0, -33.33, 8729.77, 11573.24)" gradientUnits="userSpaceOnUse"><stop offset="0" stop-color="#f9cd00"></stop><stop offset="0.01" stop-color="#f9cd00"></stop><stop offset="0.22" stop-color="#d4c922"></stop><stop offset="0.67" stop-color="#78bf78"></stop><stop offset="1" stop-color="#30b7ba"></stop></linearGradient></defs><g class="cls-2"><path class="cls-3" d="M57.87,32.5l.24-.09c.44-.16.88-.32,1.31-.5A24.82,24.82,0,0,0,71.93,19.73a3.67,3.67,0,0,1,.36-.6,34.74,34.74,0,0,0-15,13.5l.53-.13" transform="translate(-4.46 -1.26)"></path><path class="cls-4" d="M33.73,39.28l-.1-.29c-.15-.41-.3-.83-.48-1.23A24.8,24.8,0,0,0,21,25.25a3.82,3.82,0,0,1-.81-.5A34.65,34.65,0,0,0,33.83,40.51l.34.22a13.74,13.74,0,0,0-.44-1.45" transform="translate(-4.46 -1.26)"></path></g><g class="cls-5"><rect class="cls-6" x="13.61" y="15.88" width="25.75" height="38.93"></rect></g><g class="cls-2"><path class="cls-7" d="M40.22,62.82,40,62.9c-.48.17-1,.34-1.44.55A24.8,24.8,0,0,0,26.05,75.62a4.1,4.1,0,0,1-1.5,1.71A34.71,34.71,0,0,0,40.92,63.21l.43-.72c-.4.1-.78.21-1.13.33" transform="translate(-4.46 -1.26)"></path></g><g class="cls-8"><rect class="cls-9" x="14.09" y="45.05" width="48.17" height="41.49" transform="translate(-30.05 23.06) rotate(-26.83)"></rect></g><g class="cls-2"><path class="cls-10" d="M64.59,55.72c.2.56.39,1.12.64,1.68A24.77,24.77,0,0,0,77.39,69.9,4.18,4.18,0,0,1,79,71.2,34.39,34.39,0,0,0,64.55,55.59l0,.13" transform="translate(-4.46 -1.26)"></path></g><g class="cls-11"><rect class="cls-12" x="49.89" y="38.01" width="25.66" height="38.74"></rect></g><g class="cls-13"><rect class="cls-14" x="36.95" y="9.71" width="47.17" height="40.88" transform="translate(-11.55 29.31) rotate(-26.83)"></rect></g><g class="cls-2"><path class="cls-4" d="M49.09,3.21H49a9.2,9.2,0,0,0-.25,18.4h.12a9.21,9.21,0,0,0,.25-18.41" transform="translate(-4.46 -1.26)"></path><path class="cls-7" d="M13.81,37.84h-.12A9.2,9.2,0,0,0,7.08,53.47a9.34,9.34,0,0,0,6.48,2.77h.12a9.22,9.22,0,0,0,9.19-9.09,9.23,9.23,0,0,0-9-9.31h0" transform="translate(-4.46 -1.26)"></path><path class="cls-15" d="M42.27,89.93a9.11,9.11,0,0,0,6.4,2.77A9.2,9.2,0,0,0,49,74.3h-.16a9.2,9.2,0,0,0-6.61,15.63" transform="translate(-4.46 -1.26)"></path><path class="cls-16" d="M84.74,37.78a9.2,9.2,0,1,0,9,9.31,9.23,9.23,0,0,0-9-9.31" transform="translate(-4.46 -1.26)"></path><path class="cls-10" d="M112.21,61l.92-.09a9.26,9.26,0,0,1,1,0,7,7,0,0,1,1.21.11,3.34,3.34,0,0,1,1.07.4,2.27,2.27,0,0,1,.78.76,2.43,2.43,0,0,1,.29,1.23,2.69,2.69,0,0,1-.11.79,2.31,2.31,0,0,1-.28.59,2.08,2.08,0,0,1-.38.44,2.87,2.87,0,0,1-.37.3l-.19.12L118,69l-.46,0-.5,0a4.61,4.61,0,0,1-.84-.07l-2.09-3.71.27-.14a3.62,3.62,0,0,0,.37-.2,2.38,2.38,0,0,0,.43-.3,1.43,1.43,0,0,0,.35-.45,1.2,1.2,0,0,0,.15-.61,1.26,1.26,0,0,0-.4-1,1.6,1.6,0,0,0-1-.33,2.94,2.94,0,0,0-.44,0V69l-.4,0a2.68,2.68,0,0,1-.39,0h-.4l-.44,0Z" transform="translate(-4.46 -1.26)"></path><path class="cls-10" d="M120.36,66.62a1.19,1.19,0,0,0,.47,1,1.87,1.87,0,0,0,1.11.3,4.26,4.26,0,0,0,1.52-.28,2.25,2.25,0,0,1,.21.54,2.34,2.34,0,0,1,.1.66,5.21,5.21,0,0,1-2,.34,4,4,0,0,1-1.38-.22,2.49,2.49,0,0,1-.93-.62,2.66,2.66,0,0,1-.54-.94,4.12,4.12,0,0,1-.17-1.19A3.8,3.8,0,0,1,119,65a2.69,2.69,0,0,1,.53-1,2.37,2.37,0,0,1,.87-.65,2.79,2.79,0,0,1,1.2-.24,2.59,2.59,0,0,1,1.07.21,2.32,2.32,0,0,1,.8.58,2.46,2.46,0,0,1,.49.87,3.51,3.51,0,0,1,.17,1.09c0,.14,0,.28,0,.41a2.11,2.11,0,0,1,0,.33Zm2.26-1.1a1.43,1.43,0,0,0-.3-.86.92.92,0,0,0-.76-.33,1.11,1.11,0,0,0-.85.31,1.5,1.5,0,0,0-.34.88Z" transform="translate(-4.46 -1.26)"></path><path class="cls-10" d="M126.75,66.51a2.19,2.19,0,0,1-1-.53,1.43,1.43,0,0,1-.35-1,1.58,1.58,0,0,1,.61-1.32,2.57,2.57,0,0,1,1.65-.48,4.11,4.11,0,0,1,.86.08,5.36,5.36,0,0,1,.85.23,2.73,2.73,0,0,1-.11.6,3.16,3.16,0,0,1-.21.55,4.07,4.07,0,0,0-.59-.2,3,3,0,0,0-.68-.08,1.35,1.35,0,0,0-.59.11.41.41,0,0,0-.21.38.37.37,0,0,0,.15.34,1.76,1.76,0,0,0,.43.19l.64.19a3.11,3.11,0,0,1,.56.22,1.69,1.69,0,0,1,.43.31,1.45,1.45,0,0,1,.27.47,2,2,0,0,1,.1.68,1.67,1.67,0,0,1-.17.77,1.74,1.74,0,0,1-.5.62,2.51,2.51,0,0,1-.8.41,3.41,3.41,0,0,1-1.05.15l-.49,0-.43,0-.41-.1c-.13,0-.28-.08-.43-.14a2.61,2.61,0,0,1,.11-.61,3.57,3.57,0,0,1,.21-.6,4.63,4.63,0,0,0,.7.22,3,3,0,0,0,.68.07l.34,0a1.69,1.69,0,0,0,.34-.1,1,1,0,0,0,.26-.19.51.51,0,0,0,0-.69,1.58,1.58,0,0,0-.45-.21Z" transform="translate(-4.46 -1.26)"></path><path class="cls-10" d="M132.29,66.62a1.19,1.19,0,0,0,.47,1,1.87,1.87,0,0,0,1.11.3,4.26,4.26,0,0,0,1.52-.28,2.77,2.77,0,0,1,.21.54,2.34,2.34,0,0,1,.1.66,5.21,5.21,0,0,1-1.95.34,4,4,0,0,1-1.38-.22,2.49,2.49,0,0,1-.93-.62,2.66,2.66,0,0,1-.54-.94,4.12,4.12,0,0,1-.17-1.19,3.8,3.8,0,0,1,.18-1.19,2.69,2.69,0,0,1,.53-1,2.42,2.42,0,0,1,.86-.65,2.87,2.87,0,0,1,1.21-.24,2.59,2.59,0,0,1,1.07.21,2.32,2.32,0,0,1,.8.58,2.46,2.46,0,0,1,.49.87,3.51,3.51,0,0,1,.17,1.09c0,.14,0,.28,0,.41a2.11,2.11,0,0,1,0,.33Zm2.26-1.1a1.43,1.43,0,0,0-.3-.86.92.92,0,0,0-.76-.33,1.11,1.11,0,0,0-.85.31,1.5,1.5,0,0,0-.34.88Z" transform="translate(-4.46 -1.26)"></path><path class="cls-10" d="M140.43,65.23a1,1,0,0,0-.08-.43.69.69,0,0,0-.25-.26.86.86,0,0,0-.38-.13,3.77,3.77,0,0,0-.51,0,3.84,3.84,0,0,0-1.28.24,3.08,3.08,0,0,1-.23-.55,2.15,2.15,0,0,1-.08-.61,5.83,5.83,0,0,1,1-.24,5,5,0,0,1,.91-.08,2.7,2.7,0,0,1,1.81.55,2.26,2.26,0,0,1,.65,1.79V68.8A8.13,8.13,0,0,1,141,69a6.76,6.76,0,0,1-1.25.11,4.77,4.77,0,0,1-1-.1,2.25,2.25,0,0,1-.82-.34,1.52,1.52,0,0,1-.52-.6,2,2,0,0,1-.18-.9,1.57,1.57,0,0,1,.23-.89,1.64,1.64,0,0,1,.59-.58,2.42,2.42,0,0,1,.8-.31,3.92,3.92,0,0,1,.89-.1l.71,0Zm0,1.15-.28,0-.28,0a1.61,1.61,0,0,0-.86.2.67.67,0,0,0-.32.63.7.7,0,0,0,.12.44.76.76,0,0,0,.3.23,1.06,1.06,0,0,0,.36.09h.34a2,2,0,0,0,.34,0l.28-.05Z" transform="translate(-4.46 -1.26)"></path><path class="cls-10" d="M143.65,63.26l.32,0,.33,0a1.66,1.66,0,0,1,.32,0l.32.05a.91.91,0,0,1,.06.16,1.55,1.55,0,0,1,.05.23,1.57,1.57,0,0,1,0,.23c0,.08,0,.14,0,.2a2.71,2.71,0,0,1,.6-.62,1.43,1.43,0,0,1,.89-.28l.26,0a.55.55,0,0,1,.21,0,1.71,1.71,0,0,1,0,.25c0,.1,0,.2,0,.31s0,.26,0,.41,0,.29-.06.42l-.28,0h-.18a2.12,2.12,0,0,0-.42,0,.91.91,0,0,0-.45.2,1.21,1.21,0,0,0-.35.5,2.62,2.62,0,0,0-.14.94V69l-.4,0h-.77l-.41,0Z" transform="translate(-4.46 -1.26)"></path><path class="cls-10" d="M152.1,67.66a2.38,2.38,0,0,1,.22.51,2.43,2.43,0,0,1,.09.7,3.37,3.37,0,0,1-.83.23,7.22,7.22,0,0,1-.82.05,3.17,3.17,0,0,1-1.25-.23,2.32,2.32,0,0,1-.89-.63,2.75,2.75,0,0,1-.53-1,3.87,3.87,0,0,1-.18-1.2,3.79,3.79,0,0,1,.18-1.18,2.66,2.66,0,0,1,.52-.95,2.37,2.37,0,0,1,.87-.65,3.09,3.09,0,0,1,1.22-.23h.45l.39,0,.38.09.42.15a3.07,3.07,0,0,1-.06.57,2.79,2.79,0,0,1-.22.61,2.62,2.62,0,0,0-.58-.15,3.32,3.32,0,0,0-.57,0,1.23,1.23,0,0,0-1,.45,2,2,0,0,0-.35,1.28,2,2,0,0,0,.37,1.32,1.36,1.36,0,0,0,1,.41h.3l.28,0,.27-.07.33-.11" transform="translate(-4.46 -1.26)"></path><path class="cls-10" d="M153.78,60.88a2.45,2.45,0,0,1,.39,0H155a2.85,2.85,0,0,1,.4,0v3.06l.2-.24a3,3,0,0,1,.32-.27,2.19,2.19,0,0,1,.46-.21,2.21,2.21,0,0,1,2.06.44,2.43,2.43,0,0,1,.5,1.68V69l-.4,0h-.78l-.4,0V65.77a2,2,0,0,0-.19-.93.7.7,0,0,0-.65-.32,1.43,1.43,0,0,0-.39.06.74.74,0,0,0-.36.21,1.23,1.23,0,0,0-.27.45,2.33,2.33,0,0,0-.1.76v3l-.4,0h-.78l-.39,0Z" transform="translate(-4.46 -1.26)"></path><path class="cls-10" d="M163.71,64.46h-.92c0-.11,0-.22,0-.32a2.81,2.81,0,0,1,0-.3,2.53,2.53,0,0,1,0-.28c0-.09,0-.19,0-.3h.92V63a2.59,2.59,0,0,1,.16-.95,1.86,1.86,0,0,1,.46-.7,2,2,0,0,1,.72-.43,2.63,2.63,0,0,1,.91-.15l.57,0a3.7,3.7,0,0,1,.49.11,5.58,5.58,0,0,1-.07.66,3.23,3.23,0,0,1-.16.59l-.26-.05a1.69,1.69,0,0,0-.35,0,.81.81,0,0,0-.91,1v.24h1.34a2.11,2.11,0,0,1,0,.33,2.66,2.66,0,0,1,0,.3,2.45,2.45,0,0,1,0,.27,1.77,1.77,0,0,1,0,.3h-1.34V69a5.09,5.09,0,0,1-.77.06,5.25,5.25,0,0,1-.79-.06Z" transform="translate(-4.46 -1.26)"></path><path class="cls-10" d="M167.91,63.26a4.49,4.49,0,0,1,1.58,0v3.05a3.75,3.75,0,0,0,.07.75,1.15,1.15,0,0,0,.23.47.77.77,0,0,0,.37.24,1.62,1.62,0,0,0,.52.08,2.61,2.61,0,0,0,.69-.08V63.26a4.44,4.44,0,0,1,1.57,0v5.53A8.36,8.36,0,0,1,172,69a6,6,0,0,1-1.22.12,6.41,6.41,0,0,1-1.09-.09,2.22,2.22,0,0,1-.92-.38,1.89,1.89,0,0,1-.62-.84,3.85,3.85,0,0,1-.24-1.48Z" transform="translate(-4.46 -1.26)"></path><path class="cls-10" d="M174.66,63.26l.31,0,.34,0,.34,0,.3,0a.91.91,0,0,1,.06.16c0,.07,0,.15.05.23s0,.15,0,.22,0,.14,0,.19a2.5,2.5,0,0,1,.26-.33,2.6,2.6,0,0,1,.36-.3,2,2,0,0,1,.47-.22,2,2,0,0,1,.56-.08,1.94,1.94,0,0,1,1.48.53,2.43,2.43,0,0,1,.49,1.68V69a4.22,4.22,0,0,1-.79.07,4.29,4.29,0,0,1-.79-.07V65.77a1.94,1.94,0,0,0-.18-.93.68.68,0,0,0-.64-.32,1.32,1.32,0,0,0-.39.06.74.74,0,0,0-.36.21,1.09,1.09,0,0,0-.26.45,2.33,2.33,0,0,0-.1.76v3a4.29,4.29,0,0,1-.79.07,4.22,4.22,0,0,1-.79-.07Z" transform="translate(-4.46 -1.26)"></path><path class="cls-10" d="M184.92,60.88a2.58,2.58,0,0,1,.39,0l.39,0,.39,0a2.85,2.85,0,0,1,.4,0v7.95a9.73,9.73,0,0,1-1.07.24,9.51,9.51,0,0,1-1.3.08A4.17,4.17,0,0,1,183,69a2.64,2.64,0,0,1-1-.51,2.46,2.46,0,0,1-.66-.91,3.65,3.65,0,0,1-.23-1.36,3.44,3.44,0,0,1,.2-1.2,2.91,2.91,0,0,1,.59-1,2.94,2.94,0,0,1,.93-.65,3,3,0,0,1,1.21-.24l.42,0a1.94,1.94,0,0,1,.42.07Zm0,3.57-.36-.07-.35,0a1.29,1.29,0,0,0-.64.15,1.37,1.37,0,0,0-.46.4,2.11,2.11,0,0,0-.26.59,3.36,3.36,0,0,0-.08.71,2.46,2.46,0,0,0,.11.77,1.34,1.34,0,0,0,.31.51,1,1,0,0,0,.46.27,1.81,1.81,0,0,0,.58.09l.34,0a2.7,2.7,0,0,0,.35-.07Z" transform="translate(-4.46 -1.26)"></path><path class="cls-10" d="M188.6,64.46h-.74a1.45,1.45,0,0,1-.05-.3,1.67,1.67,0,0,1,0-.31,2.32,2.32,0,0,1,.07-.59h2.29V69a5.32,5.32,0,0,1-.78.06,5.19,5.19,0,0,1-.77-.06Zm-.23-2.17a3.78,3.78,0,0,1-.07-.74,4,4,0,0,1,.07-.75l.4,0h.81l.41,0c0,.13,0,.25,0,.37s0,.25,0,.38,0,.24,0,.36,0,.26,0,.38a2.43,2.43,0,0,1-.4.05h-.81a2.42,2.42,0,0,1-.41-.05" transform="translate(-4.46 -1.26)"></path><path class="cls-10" d="M192,63.26l.32,0,.34,0,.33,0,.31,0a.91.91,0,0,1,.06.16c0,.07,0,.15,0,.23l0,.22a.81.81,0,0,1,0,.19,3.92,3.92,0,0,1,.27-.33,1.79,1.79,0,0,1,.36-.3,2.17,2.17,0,0,1,.46-.22,2,2,0,0,1,.57-.08,2,2,0,0,1,1.48.53,2.43,2.43,0,0,1,.49,1.68V69a4.49,4.49,0,0,1-1.58,0V65.77a1.94,1.94,0,0,0-.18-.93.69.69,0,0,0-.64-.32,1.32,1.32,0,0,0-.39.06.67.67,0,0,0-.36.21,1.23,1.23,0,0,0-.27.45,2.64,2.64,0,0,0-.1.76v3a4.22,4.22,0,0,1-.79.07A4.29,4.29,0,0,1,192,69Z" transform="translate(-4.46 -1.26)"></path><path class="cls-10" d="M202,68.06a2.21,2.21,0,0,1,1.49.45,1.54,1.54,0,0,1,.48,1.22,1.58,1.58,0,0,1-.24.85,2.31,2.31,0,0,1-.67.65,3.23,3.23,0,0,1-1,.41,5,5,0,0,1-1.25.15,5.2,5.2,0,0,1-1.13-.11,2.64,2.64,0,0,1-.77-.29,1.25,1.25,0,0,1-.42-.47,1.55,1.55,0,0,1-.13-.61,1.36,1.36,0,0,1,.24-.83,2.55,2.55,0,0,1,.64-.57,1.22,1.22,0,0,1-.4-.38,1,1,0,0,1-.15-.58,1.26,1.26,0,0,1,.17-.69,2.19,2.19,0,0,1,.53-.52,1.88,1.88,0,0,1-.82-1.56,2,2,0,0,1,.17-.81,1.8,1.8,0,0,1,.49-.65,2.49,2.49,0,0,1,.77-.43,3.26,3.26,0,0,1,1-.15,3.09,3.09,0,0,1,1,.17,2.65,2.65,0,0,1,.78.44,1.42,1.42,0,0,1,.52-.42,2.16,2.16,0,0,1,.84-.14c0,.1,0,.2,0,.29a2.64,2.64,0,0,1,0,.29c0,.12,0,.24,0,.36a2.52,2.52,0,0,1,0,.37h-.9a1.28,1.28,0,0,1,.1.26,1.55,1.55,0,0,1,.05.42,2.15,2.15,0,0,1-.16.8,1.77,1.77,0,0,1-.48.64,2.32,2.32,0,0,1-.76.43,3.22,3.22,0,0,1-1,.15,3.15,3.15,0,0,1-.85-.1.53.53,0,0,0-.24.26.87.87,0,0,0,0,.26.37.37,0,0,0,.12.29.69.69,0,0,0,.47.13Zm-1.42,1.15a1.18,1.18,0,0,0-.41.06.66.66,0,0,0-.39.41,1.09,1.09,0,0,0,0,.25.57.57,0,0,0,.32.57,2,2,0,0,0,.85.15,2.42,2.42,0,0,0,1.13-.22.65.65,0,0,0,.4-.81.5.5,0,0,0-.1-.19.93.93,0,0,0-.22-.14,1.22,1.22,0,0,0-.37-.05Zm.45-3a.8.8,0,0,0,.68-.27,1.45,1.45,0,0,0,0-1.47.78.78,0,0,0-.68-.28.82.82,0,0,0-.69.28,1.39,1.39,0,0,0,0,1.47.85.85,0,0,0,.69.27" transform="translate(-4.46 -1.26)"></path><path class="cls-10" d="M207.4,63.27a2.86,2.86,0,0,1,.48-.06l.39,0,.43,0a1.75,1.75,0,0,1,.4,0l.92,4.25,1.07-4.25a4.37,4.37,0,0,1,.76-.07l.48,0a1.66,1.66,0,0,1,.33,0l1.05,4.17.91-4.17.36,0,.37,0,.38,0a3.13,3.13,0,0,1,.48.06L214.42,69l-.43,0h-.76a2.63,2.63,0,0,1-.39-.06l-1.05-3.8L210.71,69l-.44,0h-.74a2.57,2.57,0,0,1-.4-.06Z" transform="translate(-4.46 -1.26)"></path><path class="cls-10" d="M217.66,64.46h-.75a2.68,2.68,0,0,1,0-.3c0-.11,0-.21,0-.31a2.88,2.88,0,0,1,.06-.59h2.29V69a5,5,0,0,1-1.54,0Zm-.24-2.17a4.71,4.71,0,0,1-.06-.74,4.93,4.93,0,0,1,.06-.75l.41,0h.81l.41,0a2.46,2.46,0,0,1,0,.37c0,.13,0,.25,0,.38s0,.24,0,.36a2.33,2.33,0,0,1,0,.38,2.55,2.55,0,0,1-.41.05h-.8a2.68,2.68,0,0,1-.42-.05" transform="translate(-4.46 -1.26)"></path><path class="cls-10" d="M221.2,64.46h-.73l-.05-.22,2.08-2.66h.26v1.68h1.34c0,.11,0,.21.05.3s0,.18,0,.28,0,.21,0,.3,0,.21-.05.32h-1.34v2.26a2.18,2.18,0,0,0,.05.56.85.85,0,0,0,.16.33.5.5,0,0,0,.26.17,1.4,1.4,0,0,0,.37,0,1.83,1.83,0,0,0,.33,0l.28,0a1.67,1.67,0,0,1,.11.44,2,2,0,0,1,0,.4,1.28,1.28,0,0,1,0,.21s0,.11,0,.16a4.72,4.72,0,0,1-1.06.12,2.3,2.3,0,0,1-1.55-.47,2,2,0,0,1-.53-1.54Z" transform="translate(-4.46 -1.26)"></path><path class="cls-10" d="M225.56,60.88a2.58,2.58,0,0,1,.39,0h.78a2.71,2.71,0,0,1,.4,0v3.06a2,2,0,0,1,.21-.24,2.14,2.14,0,0,1,.31-.27,2.19,2.19,0,0,1,.46-.21,2.21,2.21,0,0,1,2.06.44,2.43,2.43,0,0,1,.5,1.68V69l-.4,0h-.78l-.4,0V65.77a1.84,1.84,0,0,0-.19-.93.7.7,0,0,0-.65-.32,1.43,1.43,0,0,0-.39.06.74.74,0,0,0-.36.21,1.21,1.21,0,0,0-.26.45,2.31,2.31,0,0,0-.11.76v3l-.4,0H226l-.4,0Z" transform="translate(-4.46 -1.26)"></path><path class="cls-10" d="M234.82,69.15a3.05,3.05,0,0,1-1.22-.23,2.37,2.37,0,0,1-.86-.63,3,3,0,0,1-.51-1,4.12,4.12,0,0,1-.17-1.19,4.23,4.23,0,0,1,.17-1.19,2.94,2.94,0,0,1,.51-1,2.52,2.52,0,0,1,.86-.64,3.35,3.35,0,0,1,2.44,0,2.46,2.46,0,0,1,.87.64,2.6,2.6,0,0,1,.51,1,3.89,3.89,0,0,1,.17,1.19,3.81,3.81,0,0,1-.17,1.19,2.64,2.64,0,0,1-.51,1,2.33,2.33,0,0,1-.87.63,3.05,3.05,0,0,1-1.22.23m0-1.2a1,1,0,0,0,.9-.46,3.44,3.44,0,0,0,0-2.67,1,1,0,0,0-.9-.46,1,1,0,0,0-.89.46,3.44,3.44,0,0,0,0,2.67,1,1,0,0,0,.89.46" transform="translate(-4.46 -1.26)"></path><path class="cls-10" d="M239,63.26a5.27,5.27,0,0,1,.79-.07,5.39,5.39,0,0,1,.79.07v3.05a3.13,3.13,0,0,0,.07.75,1.14,1.14,0,0,0,.22.47.77.77,0,0,0,.37.24,1.69,1.69,0,0,0,.53.08,2.73,2.73,0,0,0,.69-.08V63.26a5.14,5.14,0,0,1,.78-.07,5.51,5.51,0,0,1,.79.07v5.53a9,9,0,0,1-.94.24,6.08,6.08,0,0,1-1.22.12,6.33,6.33,0,0,1-1.09-.09,2.17,2.17,0,0,1-.92-.38,1.84,1.84,0,0,1-.63-.84,3.86,3.86,0,0,1-.23-1.48Z" transform="translate(-4.46 -1.26)"></path><path class="cls-10" d="M245.92,64.46h-.73l-.05-.22,2.08-2.66h.25v1.68h1.35c0,.11,0,.21.05.3s0,.18,0,.28,0,.21,0,.3,0,.21-.05.32h-1.35v2.26a2.12,2.12,0,0,0,.06.56.85.85,0,0,0,.16.33.5.5,0,0,0,.26.17,1.4,1.4,0,0,0,.37,0,1.83,1.83,0,0,0,.33,0l.28,0a2.18,2.18,0,0,1,.11.44,2,2,0,0,1,0,.4c0,.09,0,.15,0,.21a.88.88,0,0,1,0,.16,4.57,4.57,0,0,1-1.05.12,2.3,2.3,0,0,1-1.55-.47,2,2,0,0,1-.53-1.54Z" transform="translate(-4.46 -1.26)"></path><path class="cls-10" d="M253,60.88a5.38,5.38,0,0,1,.78-.07,5.27,5.27,0,0,1,.79.07v2.94a1.31,1.31,0,0,1,.56-.5,2,2,0,0,1,.89-.19,2.41,2.41,0,0,1,.93.18,2,2,0,0,1,.74.54,2.59,2.59,0,0,1,.49.9,4.19,4.19,0,0,1,.18,1.29,3.73,3.73,0,0,1-.22,1.3,2.63,2.63,0,0,1-.65,1,2.81,2.81,0,0,1-1,.62,4,4,0,0,1-1.38.22l-.52,0-.55-.06a4.29,4.29,0,0,1-.54-.11,4.49,4.49,0,0,1-.47-.13Zm1.57,6.89a.93.93,0,0,0,.29,0l.3,0a1.49,1.49,0,0,0,1.14-.43,1.85,1.85,0,0,0,.41-1.32,2.36,2.36,0,0,0-.25-1.22,1,1,0,0,0-.87-.42,1,1,0,0,0-.73.3,1.28,1.28,0,0,0-.29.93Z" transform="translate(-4.46 -1.26)"></path><path class="cls-10" d="M262.31,69.15a3,3,0,0,1-1.22-.23,2.29,2.29,0,0,1-.86-.63,3,3,0,0,1-.51-1,4.12,4.12,0,0,1-.17-1.19,4.23,4.23,0,0,1,.17-1.19,2.94,2.94,0,0,1,.51-1,2.42,2.42,0,0,1,.86-.64,3,3,0,0,1,1.22-.23,3.05,3.05,0,0,1,1.22.23,2.46,2.46,0,0,1,.87.64,2.6,2.6,0,0,1,.51,1,3.89,3.89,0,0,1,.17,1.19,3.81,3.81,0,0,1-.17,1.19,2.64,2.64,0,0,1-.51,1,2.33,2.33,0,0,1-.87.63,3.05,3.05,0,0,1-1.22.23m0-1.2a1,1,0,0,0,.89-.46,3.32,3.32,0,0,0,0-2.67,1.09,1.09,0,0,0-1.78,0,3.44,3.44,0,0,0,0,2.67,1,1,0,0,0,.89.46" transform="translate(-4.46 -1.26)"></path><path class="cls-10" d="M266.6,63.26l.32,0,.33,0a1.84,1.84,0,0,1,.33,0l.31.05a.48.48,0,0,1,.07.16c0,.07,0,.15.05.23l0,.23a2,2,0,0,1,0,.2,3.2,3.2,0,0,1,.6-.62,1.45,1.45,0,0,1,.89-.28l.26,0a.51.51,0,0,1,.21,0,1.64,1.64,0,0,1,0,.25c0,.1,0,.2,0,.31s0,.26,0,.41a2.65,2.65,0,0,1-.06.42l-.27,0h-.19a2.19,2.19,0,0,0-.42,0,.91.91,0,0,0-.45.2,1.3,1.3,0,0,0-.35.5,2.62,2.62,0,0,0-.14.94V69l-.4,0H267l-.41,0Z" transform="translate(-4.46 -1.26)"></path><path class="cls-10" d="M274.64,60.88a2.58,2.58,0,0,1,.39,0l.39,0,.39,0a2.85,2.85,0,0,1,.4,0v7.95a9.56,9.56,0,0,1-1.06.24,9.67,9.67,0,0,1-1.31.08,4.17,4.17,0,0,1-1.13-.16,2.64,2.64,0,0,1-.95-.51,2.33,2.33,0,0,1-.65-.91,3.84,3.84,0,0,1,0-2.56,3.08,3.08,0,0,1,.59-1,2.94,2.94,0,0,1,.93-.65,3,3,0,0,1,1.21-.24l.42,0a1.84,1.84,0,0,1,.42.07Zm0,3.57-.36-.07-.35,0a1.29,1.29,0,0,0-.64.15,1.34,1.34,0,0,0-.45.4,1.88,1.88,0,0,0-.27.59,3.36,3.36,0,0,0-.08.71,2.46,2.46,0,0,0,.11.77,1.34,1.34,0,0,0,.31.51,1,1,0,0,0,.46.27,1.81,1.81,0,0,0,.58.09l.34,0a2.7,2.7,0,0,0,.35-.07Z" transform="translate(-4.46 -1.26)"></path><path class="cls-10" d="M279.27,66.62a1.19,1.19,0,0,0,.47,1,1.87,1.87,0,0,0,1.11.3,4.08,4.08,0,0,0,.77-.07,4.35,4.35,0,0,0,.75-.21,2.77,2.77,0,0,1,.21.54,2.34,2.34,0,0,1,.1.66,5.21,5.21,0,0,1-1.95.34,4,4,0,0,1-1.38-.22,2.49,2.49,0,0,1-.93-.62,2.66,2.66,0,0,1-.54-.94,4.12,4.12,0,0,1-.17-1.19,3.8,3.8,0,0,1,.18-1.19,2.69,2.69,0,0,1,.53-1,2.42,2.42,0,0,1,.86-.65,2.87,2.87,0,0,1,1.21-.24,2.59,2.59,0,0,1,1.07.21,2.32,2.32,0,0,1,.8.58,2.46,2.46,0,0,1,.49.87,3.51,3.51,0,0,1,.17,1.09c0,.14,0,.28,0,.41a2.11,2.11,0,0,1,0,.33Zm2.26-1.1a1.43,1.43,0,0,0-.3-.86.92.92,0,0,0-.76-.33,1.11,1.11,0,0,0-.85.31,1.5,1.5,0,0,0-.34.88Z" transform="translate(-4.46 -1.26)"></path><path class="cls-10" d="M284.54,63.26l.32,0,.33,0a1.84,1.84,0,0,1,.33,0l.32.05a.91.91,0,0,1,.06.16c0,.07,0,.15.05.23a2.23,2.23,0,0,0,0,.23,1.68,1.68,0,0,1,0,.2,3.2,3.2,0,0,1,.6-.62,1.45,1.45,0,0,1,.89-.28l.26,0a.51.51,0,0,1,.21,0,1.64,1.64,0,0,1,0,.25c0,.1,0,.2,0,.31s0,.26,0,.41a2.65,2.65,0,0,1-.06.42l-.27,0h-.19a2.19,2.19,0,0,0-.42,0,.91.91,0,0,0-.45.2,1.3,1.3,0,0,0-.35.5,2.62,2.62,0,0,0-.14.94V69l-.4,0H285l-.41,0Z" transform="translate(-4.46 -1.26)"></path><path class="cls-10" d="M290.29,66.51a2.19,2.19,0,0,1-1-.53,1.43,1.43,0,0,1-.35-1,1.58,1.58,0,0,1,.61-1.32,2.57,2.57,0,0,1,1.65-.48,4.11,4.11,0,0,1,.86.08,5.78,5.78,0,0,1,.86.23,3.54,3.54,0,0,1-.12.6,2.52,2.52,0,0,1-.21.55,3.69,3.69,0,0,0-.59-.2,3,3,0,0,0-.68-.08,1.35,1.35,0,0,0-.59.11.41.41,0,0,0-.21.38.37.37,0,0,0,.15.34,1.76,1.76,0,0,0,.43.19l.64.19a3.11,3.11,0,0,1,.56.22,1.53,1.53,0,0,1,.43.31,1.29,1.29,0,0,1,.27.47,1.94,1.94,0,0,1,.11.68A1.68,1.68,0,0,1,293,68a1.74,1.74,0,0,1-.5.62,2.56,2.56,0,0,1-.79.41,3.53,3.53,0,0,1-1.06.15l-.49,0-.43,0-.41-.1-.43-.14a2.61,2.61,0,0,1,.11-.61,3.57,3.57,0,0,1,.21-.6,4.63,4.63,0,0,0,.7.22,3,3,0,0,0,.68.07l.34,0a1.69,1.69,0,0,0,.34-.1,1,1,0,0,0,.26-.19.45.45,0,0,0,.11-.31.43.43,0,0,0-.16-.38,1.58,1.58,0,0,0-.45-.21Z" transform="translate(-4.46 -1.26)"></path><path class="cls-17" d="M149.2,22.54l-7.87,22.8-7.28-22.8h-3.12l-7.28,22.8L117,26.17h0c-.76-2.13-1.91-4.31-4.74-4.31a4.59,4.59,0,0,0-2.84.95l-.48.65.77,2.13.93.24.28-.21a1.76,1.76,0,0,1,1.07-.37c.34,0,.91.06,1.77,2.55l8.8,24.8h2.3l7.6-23.65,7.6,23.65h2.29L152.7,23.52l-.25-1Z" transform="translate(-4.46 -1.26)"></path><path class="cls-17" d="M174.43,21.85c-8.78,0-15.14,6.61-15.14,15.71s6.58,15.72,15.65,15.72c5.37,0,10.46-2.4,13.28-6.25l.14-.19V46l-1.89-1.52h-.8l-.22.3a13.18,13.18,0,0,1-10.57,5A11.55,11.55,0,0,1,163,39h25.91l.12-.58a5.66,5.66,0,0,0,.07-1.12c0-9.11-6-15.48-14.68-15.48M185.37,35.7H163a11,11,0,0,1,11.46-10.4c6.13,0,10.24,4,10.89,10.4" transform="translate(-4.46 -1.26)"></path><path class="cls-17" d="M224.66,49.29l-.3.22a1.61,1.61,0,0,1-1,.38c-.3,0-1,0-1-1.86V33c0-5.16-3.27-11.19-12.51-11.19a15.44,15.44,0,0,0-11.75,5.28l-.18.2v.78l1.82,1.59h.76l.21-.23a12,12,0,0,1,9-4.17c4.36,0,9.06,2.35,9.06,7.51V35.2a24.28,24.28,0,0,0-8.95-1.73c-7.8,0-12.85,3.87-12.85,9.87,0,5.85,4.82,9.94,11.71,9.94a13.9,13.9,0,0,0,10.2-4,4.13,4.13,0,0,0,4.22,4,4.33,4.33,0,0,0,2.82-1l.45-.63-.84-2.1Zm-5.93-10.58v2.91c0,5.33-5.11,8.21-9.92,8.21s-8.2-2.67-8.2-6.49c0-4.79,5-6.49,9.23-6.49a24.08,24.08,0,0,1,8.89,1.86" transform="translate(-4.46 -1.26)"></path><path class="cls-17" d="M255.76,22.54l-10,24-8.44-20.42c-.91-2.22-2.14-4.28-5-4.28a4.45,4.45,0,0,0-2.85.95l-.48.65.77,2.13.94.24.27-.21a1.93,1.93,0,0,1,1.08-.37c.73,0,1.22.69,2.12,2.82l10.31,24.53h2.39l12.22-29.13-.47-.92Z" transform="translate(-4.46 -1.26)"></path><path class="cls-17" d="M280.39,21.85c-8.78,0-15.14,6.61-15.14,15.71s6.58,15.72,15.65,15.72A16.59,16.59,0,0,0,294.19,47l.14-.19V46l-1.9-1.52h-.8l-.21.3a13.21,13.21,0,0,1-10.57,5A11.53,11.53,0,0,1,269,39h25.9l.12-.58a5.66,5.66,0,0,0,.07-1.12c0-9.11-6-15.48-14.68-15.48M291.34,35.7H269a11,11,0,0,1,11.47-10.4c6.12,0,10.23,4,10.89,10.4" transform="translate(-4.46 -1.26)"></path></g></svg>